<?xml version="1.0" encoding="utf-8"?>
<!-- Generator: Adobe Illustrator 26.0.0, SVG Export Plug-In . SVG Version: 6.00 Build 0)  -->
<svg version="1.1" id="图层_1" xmlns="http://www.w3.org/2000/svg" xmlns:xlink="http://www.w3.org/1999/xlink" x="0px" y="0px"
	 viewBox="0 0 1024 1024" style="enable-background:new 0 0 1024 1024;" xml:space="preserve">
<style type="text/css">
	.st0{stroke:#FFFFFF;stroke-miterlimit:10;}
	.st1{fill:#FFFFFF;stroke:#FFFFFF;stroke-miterlimit:10;}
	.st2{fill:#FFFFFF;}
</style>
<ellipse class="st0" cx="511.74" cy="511.26" rx="447.72" ry="425.18"/>
<ellipse class="st1" cx="510.24" cy="520.32" rx="393.8" ry="373.97"/>
<ellipse cx="236.31" cy="828.37" rx="108.37" ry="109.86"/>
<ellipse cx="787.15" cy="828.26" rx="108.37" ry="109.86"/>
<ellipse class="st2" cx="237.55" cy="828.94" rx="67.08" ry="68"/>
<ellipse class="st2" cx="787.78" cy="830.33" rx="69" ry="69.95"/>
<path d="M401.67,381.22l-88.68-41.04c-14.84-6.87-21.3-24.47-14.43-39.31l0,0c6.87-14.84,24.47-21.3,39.31-14.43l88.68,41.04
	c14.84,6.87,21.3,24.47,14.43,39.31l0,0C434.11,381.63,416.51,388.09,401.67,381.22z"/>
<path d="M687.17,284.89l-89.86,41.59c-14.84,6.87-21.3,24.47-14.43,39.31l0,0c6.87,14.84,24.47,21.3,39.31,14.43l89.86-41.59
	c14.84-6.87,21.3-24.47,14.43-39.31l0,0C719.6,284.48,702.01,278.02,687.17,284.89z"/>
<path d="M392.82,405.39l-142.13,25.76c-18.35,3.33-30.53,20.9-27.2,39.24l0,0c3.33,18.35,20.9,30.53,39.24,27.2l142.13-25.76
	c18.35-3.33,30.53-20.9,27.2-39.24l0,0C428.74,414.24,411.17,402.06,392.82,405.39z"/>
<path d="M761.94,496.69l-142.13-25.76c-18.35-3.33-30.53-20.9-27.2-39.24l0,0c3.33-18.35,20.9-30.53,39.24-27.2l142.13,25.76
	c18.35,3.33,30.53,20.9,27.2,39.24l0,0C797.86,487.83,780.29,500.01,761.94,496.69z"/>
<path d="M494.28,631.35l-77.67,61.41c-12.83,10.14-15,28.76-4.86,41.59l0,0c10.14,12.83,28.76,15,41.59,4.86l77.67-61.41
	c12.83-10.14,15-28.76,4.86-41.59l0,0C525.73,623.38,507.11,621.2,494.28,631.35z"/>
<path d="M572.04,739.32l-77.67-61.41c-12.83-10.14-15-28.76-4.86-41.59l0,0c10.14-12.83,28.76-15,41.59-4.86l77.67,61.41
	c12.83,10.14,15,28.76,4.86,41.59l0,0C603.49,747.29,584.87,749.47,572.04,739.32z"/>
<path d="M265.59,459.8c0,0-45.18,57.94-38.65,90.98c6.52,33.04,15.37,29.47,27.95,55.37c12.58,25.9,12.11,50.01,8.85,63.41
	c-3.27,13.4-19.01,33.23-8.76,64.04c10.24,30.81,67.45,64.11,94.47,45.8c27.02-18.31,57.24-38.68,61.22-88.41
	c3.99-49.74,1.2-83.05-12.78-116.55c-13.97-33.49-2.79-100.03-2.79-100.03s-14.51-11.89-34.05-21.77
	C341.53,442.78,265.59,459.8,265.59,459.8z"/>
<path class="st2" d="M272.29,495.99c95.73-18.04,92.08-17.49,92.08-17.49s-7.86,74.66,7.58,100.2
	c15.44,25.54,13.48,122.68,0.56,138.5s-3.93,14.43-40.15,41.36c0,0-68.78-14.16-45.76-75.77s-19.09-117.13-19.09-117.13
	s-19.33-21.66-1.12-59.67C273.98,490.16,272.29,495.99,272.29,495.99z"/>
<path d="M662.72,444.69c-19.54,9.88-34.05,21.77-34.05,21.77s11.18,66.54-2.79,100.03c-13.97,33.5-16.77,66.81-12.78,116.55
	c3.98,49.73,34.2,70.1,61.22,88.41c27.02,18.31,84.23-14.99,94.47-45.8c10.24-30.81-5.49-50.65-8.76-64.04s-3.73-37.51,8.85-63.41
	c12.58-25.9,21.42-22.32,27.95-55.37s-38.65-90.98-38.65-90.98S682.23,434.82,662.72,444.69z"/>
<path class="st2" d="M753.05,492.02c-95.73-18.04-92.08-17.49-92.08-17.49s7.86,74.66-7.58,100.2
	c-15.44,25.54-13.48,122.68-0.56,138.5c12.91,15.82,3.93,14.43,40.15,41.36c0,0,68.78-14.16,45.76-75.77
	c-23.02-61.62,19.09-117.13,19.09-117.13s19.33-21.66,1.12-59.67C751.37,486.19,753.05,492.02,753.05,492.02z"/>
</svg>
