<?xml version="1.0" standalone="no"?><!DOCTYPE svg PUBLIC "-//W3C//DTD SVG 1.1//EN" "http://www.w3.org/Graphics/SVG/1.1/DTD/svg11.dtd"><svg t="1667526062323" class="icon" viewBox="0 0 1024 1024" version="1.1" xmlns="http://www.w3.org/2000/svg" p-id="3257" xmlns:xlink="http://www.w3.org/1999/xlink" width="200" height="200"><path d="M774.5 947.8c-64.6 0-117.2-53.1-117.2-118.4S709.9 711 774.5 711s117.2 53.1 117.2 118.4-52.6 118.4-117.2 118.4z m0-176.8c-31.5 0-57.2 26.2-57.2 58.4s25.7 58.4 57.2 58.4 57.2-26.2 57.2-58.4S806 771 774.5 771zM408.7 363.2l-88.7-41c-14.8-6.9-21.3-24.5-14.4-39.3 6.9-14.8 24.5-21.3 39.3-14.4l88.7 41c14.8 6.9 21.3 24.5 14.4 39.3-6.9 14.8-24.5 21.3-39.3 14.4zM694.2 266.9l-89.9 41.6c-14.8 6.9-21.3 24.5-14.4 39.3 6.9 14.8 24.5 21.3 39.3 14.4l89.9-41.6c14.8-6.9 21.3-24.5 14.4-39.3-6.9-14.8-24.5-21.3-39.3-14.4zM770.9 479.7l-142.1-25.8c-18.3-3.3-30.5-20.9-27.2-39.2 3.3-18.4 20.9-30.5 39.2-27.2L783 413.2c18.3 3.3 30.5 20.9 27.2 39.2-3.3 18.4-20.9 30.6-39.3 27.3z" p-id="3258"></path><path d="M712.7 774.6c-10.4 0-19.9-3.3-27.5-9.8-21.3-18.1-50.4-42.9-54.1-99.5-3.4-53.1-0.4-86.9 10.8-120.4 7.6-22.9 3.5-71.2 1.2-87.8l-1.3-9.6 6.8-7c0.5-0.5 13-13.3 29.7-24h0.1c11.1-7 28.5-7.9 56.6-3 17.3 3.1 32.4 7.3 33 7.5l7.5 2.1 4.1 6.6c0.4 0.6 9.5 15.4 18 34.4 12.5 27.9 17.3 49.9 14.5 67.3-3.4 22-8.1 30.9-14.2 41.1-2.7 4.5-5.3 8.7-8.4 16.7-7.6 19.8-8 39-5.8 50.4 0.4 1.9 1.4 4.9 2.4 8.1 4.6 13.7 11.5 34.5 4 62.8-6.9 26-33.4 53-60.4 61.5-5.8 1.6-11.6 2.6-17 2.6z m-28.8-312.5c2.1 20.9 5.3 66.8-4.1 95.3-9.4 28.3-11.9 57.8-8.8 105.2 2.6 39.7 20.8 55.2 40.1 71.7 0.3 0.3 2.6 0.7 6.7-0.6 13.9-4.3 30.2-20.7 33.7-33.6 4.5-16.8 0.5-28.6-3.3-39.9-1.5-4.5-2.9-8.7-3.8-13.2-1.6-8.2-5.7-37.6 7.8-72.4 4.3-11.2 8.3-17.8 11.5-23 4-6.6 6.4-10.6 8.9-26.5 2.4-15.3-11-46.6-23.1-67.8-21.3-5.4-43.8-8.4-50.5-6.7-5.9 3.9-11.2 8.1-15.1 11.5zM514.3 953.7c-71.4 0-142.2-17.6-204.8-50.9l28.2-53c54 28.7 115 43.9 176.6 43.9 67.2 0 133.1-17.9 190.6-51.7l30.4 51.7c-66.7 39.3-143.1 60-221 60z" p-id="3259"></path><path d="M196.3 816.3C119.8 735 77.7 628.7 77.7 517.1c0-58.9 11.5-116.1 34.3-170 22-52 53.5-98.7 93.6-138.8s86.8-71.6 138.8-93.6c53.8-22.8 111-34.3 170-34.3s116.1 11.5 170 34.3c52 22 98.7 53.5 138.8 93.6s71.6 86.8 93.6 138.8c22.8 53.8 34.3 111 34.3 170 0 48.1-7.8 95.3-23.1 140.4-14.8 43.6-36.4 84.5-64.1 121.5l-48-36C865 677.4 891 599.3 891 517.1c0-207.7-169-376.6-376.6-376.6-207.7 0-376.6 169-376.6 376.6 0 96.3 36.3 188 102.3 258.1l-43.8 41.1z" p-id="3260"></path><path d="M266.6 955.2c-64.6 0-117.2-53.1-117.2-118.4S202 718.4 266.6 718.4s117.2 53.1 117.2 118.4-52.6 118.4-117.2 118.4z m0-176.8c-31.5 0-57.2 26.2-57.2 58.4s25.7 58.4 57.2 58.4 57.2-26.2 57.2-58.4-25.7-58.4-57.2-58.4zM451 724c-5.4 0-10.7-2.1-14.7-6.4-7.5-8.1-7-20.7 1-28.3l70-65c8.1-7.5 20.7-7 28.3 1 7.5 8.1 7 20.7-1 28.3l-70 65c-3.8 3.6-8.7 5.4-13.6 5.4z" p-id="3261"></path><path d="M589.5 722.1c-4.8 0-9.7-1.7-13.5-5.3l-68.5-63.1c-8.1-7.5-8.6-20.1-1.2-28.3 7.5-8.1 20.1-8.6 28.3-1.2l68.5 63.1c8.1 7.5 8.6 20.1 1.2 28.3-4 4.3-9.4 6.5-14.8 6.5zM227.4 453c-3.3-18.3 8.9-35.9 27.2-39.2l142.2-25.7c18.3-3.3 35.9 8.8 39.2 27.2 3.3 18.3-8.9 35.9-27.2 39.2l-142.1 25.8c-18.4 3.3-36-8.9-39.3-27.3z" p-id="3262"></path><path d="M307.9 772.6c-27-8.5-53.5-35.5-60.4-61.5-7.5-28.3-0.6-49.1 4-62.8 1-3.2 2-6.2 2.4-8.1 2.2-11.4 1.8-30.6-5.8-50.4-3.1-8-5.7-12.2-8.4-16.7-6.1-10.2-10.8-19.1-14.2-41.1-2.8-17.4 2-39.4 14.5-67.3 8.5-19 17.6-33.8 18-34.4l4.1-6.6 7.5-2.1c0.6-0.2 15.7-4.4 33-7.5 28.1-4.9 45.5-4 56.6 3h0.1c16.7 10.7 29.2 23.5 29.7 24l6.8 7-1.3 9.6c-2.3 16.6-6.4 64.9 1.2 87.8 11.2 33.5 14.2 67.3 10.8 120.4-3.7 56.6-32.8 81.4-54.1 99.5-7.6 6.5-17.1 9.8-27.5 9.8-5.4 0-11.2-1-17-2.6z m30.7-321.4c-6.7-1.7-29.2 1.3-50.5 6.7-12.1 21.2-25.5 52.5-23.1 67.8 2.5 15.9 4.9 19.9 8.9 26.5 3.2 5.2 7.2 11.8 11.5 23 13.5 34.8 9.4 64.2 7.8 72.4-0.9 4.5-2.3 8.7-3.8 13.2-3.8 11.3-7.8 23.1-3.3 39.9 3.5 12.9 19.8 29.3 33.7 33.6 4.1 1.3 6.4 0.9 6.7 0.6 19.3-16.5 37.5-32 40.1-71.7 3.1-47.4 0.6-76.9-8.8-105.2-9.4-28.5-6.2-74.4-4.1-95.3-3.9-3.4-9.2-7.6-15.1-11.5z" p-id="3263"></path></svg>