<?xml version="1.0" standalone="no"?><!DOCTYPE svg PUBLIC "-//W3C//DTD SVG 1.1//EN" "http://www.w3.org/Graphics/SVG/1.1/DTD/svg11.dtd"><svg t="1667668288039" class="icon" viewBox="0 0 1024 1024" version="1.1" xmlns="http://www.w3.org/2000/svg" p-id="1743" xmlns:xlink="http://www.w3.org/1999/xlink" width="200" height="200"><path d="M512.1 883.5c-50.1 0-98.7-9.8-144.5-29.2-44.2-18.7-83.9-45.5-118-79.6s-60.9-73.8-79.6-118c-19.4-45.8-29.2-94.4-29.2-144.5s9.8-98.7 29.2-144.5c18.7-44.2 45.5-83.9 79.6-118s73.8-60.9 118-79.6c45.8-19.4 94.4-29.2 144.5-29.2s98.7 9.8 144.5 29.2c44.2 18.7 83.9 45.5 118 79.6s60.9 73.8 79.6 118c19.4 45.8 29.2 94.4 29.2 144.5s-9.8 98.7-29.2 144.5c-18.7 44.2-45.5 83.9-79.6 118s-73.8 60.9-118 79.6c-45.8 19.4-94.4 29.2-144.5 29.2z m0-682.6c-171.7 0-311.3 139.6-311.3 311.3s139.6 311.3 311.3 311.3 311.3-139.6 311.3-311.3-139.6-311.3-311.3-311.3z" p-id="1744"></path><path d="M724.2 660H300.1V363.8h424.1V660z m-384.1-40h344.1V403.8H340.1V620z" p-id="1745"></path><path d="M389.7 471.2h81.5v81.5h-81.5zM495.8 488.5h139.4v47.9H495.8zM512.6 283.6s-87.8 1-104.8 81.8h209c-0.1 0-8.5-76.8-104.2-81.8z m2.3 62.6c-21.9 0-21.9-32.6 0-32.6 21.9 0.1 21.8 32.6 0 32.6z" p-id="1746"></path></svg>