<?xml version="1.0" standalone="no"?><!DOCTYPE svg PUBLIC "-//W3C//DTD SVG 1.1//EN" "http://www.w3.org/Graphics/SVG/1.1/DTD/svg11.dtd"><svg t="1667668262899" class="icon" viewBox="0 0 1024 1024" version="1.1" xmlns="http://www.w3.org/2000/svg" p-id="1130" xmlns:xlink="http://www.w3.org/1999/xlink" width="200" height="200"><path d="M511.9 939.8c-53.2 0-104.8-11.3-153.4-33.7-46.8-21.5-88.7-52.2-124.7-91.4-35.8-39-64-84.3-83.6-134.8-20.3-52.1-30.6-107.5-30.6-164.5s10.3-112.4 30.6-164.5c19.6-50.5 47.8-95.8 83.6-134.8 36-39.1 77.9-69.9 124.7-91.4C407.1 102.4 458.7 91 511.9 91s104.8 11.3 153.4 33.7c46.8 21.5 88.7 52.2 124.7 91.4 35.8 39 64 84.3 83.6 134.8 20.3 52.1 30.6 107.5 30.6 164.5s-10.3 112.4-30.6 164.5c-19.6 50.5-47.8 95.8-83.6 134.8-36 39.1-77.9 69.9-124.7 91.4-48.5 22.3-100.2 33.7-153.4 33.7z m0-798.7c-188.7 0-342.3 167.9-342.3 374.3s153.5 374.3 342.3 374.3 342.3-167.9 342.3-374.3-153.5-374.3-342.3-374.3z" p-id="1131"></path><path d="M173 354.7h678v45.1H173z" p-id="1132"></path><path d="M489.1 365.2h45.1v549.5h-45.1z" p-id="1133"></path><path d="M394.136924 306.194033a22.7 34.7 21.537 1 0 25.476878-64.55454 22.7 34.7 21.537 1 0-25.476878 64.55454Z" p-id="1134"></path><path d="M596.399982 283.433722a34.7 22.7 68.466 1 0 42.231076-16.664219 34.7 22.7 68.466 1 0-42.231076 16.664219Z" p-id="1135"></path><path d="M507 379h349s139 455-344 535l-5-535z" p-id="1136"></path><path d="M993.8 571.9c-5 0-10-1.2-14.6-3.8l-118-66c-14.5-8.1-19.6-26.4-11.5-40.8 8.1-14.5 26.4-19.6 40.8-11.5l118 66c14.5 8.1 19.6 26.4 11.5 40.8-5.5 9.8-15.7 15.3-26.2 15.3zM840.5 984.5c-7.6 0-15.3-2.9-21.1-8.7L716.3 873.6c-11.8-11.7-11.8-30.7-0.2-42.4 11.7-11.8 30.7-11.8 42.4-0.2l103.1 102.3c11.8 11.7 11.8 30.7 0.2 42.4-5.9 5.9-13.6 8.8-21.3 8.8zM728.8 201.4c-9.3 0-18.6-4.4-24.4-12.5-9.6-13.5-6.5-32.2 6.9-41.9L823 67c13.5-9.6 32.2-6.5 41.9 6.9 9.6 13.5 6.5 32.2-6.9 41.9l-111.6 79.9c-5.4 3.8-11.5 5.7-17.6 5.7zM31.2 573.6c-10.3 0-20.4-5.3-26-14.9-8.3-14.3-3.5-32.7 10.8-41l108.8-63.3c14.3-8.3 32.7-3.5 41 10.8 8.3 14.3 3.5 32.7-10.8 41L46.2 569.5c-4.7 2.8-9.9 4.1-15 4.1zM178.5 981.1c-7.7 0-15.4-3-21.3-8.9-11.7-11.8-11.6-30.8 0.2-42.4l103.1-102.3c11.8-11.7 30.8-11.6 42.4 0.2s11.6 30.8-0.2 42.4L199.6 972.4c-5.8 5.8-13.5 8.7-21.1 8.7zM302.4 192.5c-6 0-12.1-1.8-17.4-5.6L173.3 107c-13.5-9.6-16.6-28.4-6.9-41.9 9.6-13.5 28.4-16.6 41.9-6.9l111.6 79.9c13.5 9.6 16.6 28.4 6.9 41.9-5.8 8.2-15 12.5-24.4 12.5z" p-id="1137"></path></svg>