<?xml version="1.0" standalone="no"?><!DOCTYPE svg PUBLIC "-//W3C//DTD SVG 1.1//EN" "http://www.w3.org/Graphics/SVG/1.1/DTD/svg11.dtd"><svg t="1667668278942" class="icon" viewBox="0 0 1024 1024" version="1.1" xmlns="http://www.w3.org/2000/svg" p-id="1588" xmlns:xlink="http://www.w3.org/1999/xlink" width="200" height="200"><path d="M772.1 799.3H251.4c-14.9 0-27-12.1-27-27V251.9c0-14.9 12.1-27 27-27h520.8c14.9 0 27 12.1 27 27v520.6c-0.2 14.8-12.4 26.8-27.1 26.8z m-517.7-30h514.8V254.9H254.4v514.4z" p-id="1589"></path><path d="M702.8 728H324.2c-14.9 0-27-12.1-27-27V322.7c0-14.9 12.1-27 27-27h378.6c14.9 0 27 12.1 27 27V701c0 14.9-12.1 27-27 27z m-375.6-30h372.6V325.7H327.2V698zM293 252.5h-0.5c-8.4 0-15.3-6.9-15.3-15.3V114.5c0-8.4 6.9-15.3 15.3-15.3h0.5c8.4 0 15.3 6.9 15.3 15.3v122.7c0 8.4-6.9 15.3-15.3 15.3zM402.8 252.8h-0.5c-8.4 0-15.3-6.9-15.3-15.3V114.8c0-8.4 6.9-15.3 15.3-15.3h0.5c8.4 0 15.3 6.9 15.3 15.3v122.7c0 8.4-6.9 15.3-15.3 15.3zM510.7 252.7h-0.5c-5.4 0-10.3-2.7-13.1-7.2-1.7-2.8-2.5-5.9-2.2-9V114.7c0-8.4 6.9-15.3 15.3-15.3h0.5c8.4 0 15.3 6.9 15.3 15.3v122.7c0 8.4-6.9 15.3-15.3 15.3zM621.2 251.9h-0.5c-8.4 0-15.3-6.9-15.3-15.3V113.9c0-8.4 6.9-15.3 15.3-15.3h0.5c8.4 0 15.3 6.9 15.3 15.3v122.7c0 8.4-6.9 15.3-15.3 15.3zM730.3 253.7h-0.5c-8.4 0-15.3-6.9-15.3-15.3V115.7c0-8.4 6.9-15.3 15.3-15.3h0.5c8.4 0 15.3 6.9 15.3 15.3v122.7c0 8.4-6.9 15.3-15.3 15.3zM293.6 926.3h-0.5c-8.4 0-15.3-6.9-15.3-15.3V788.3c0-8.4 6.9-15.3 15.3-15.3h0.5c8.4 0 15.3 6.9 15.3 15.3V911c0 8.4-6.9 15.3-15.3 15.3zM403.4 926.6h-0.5c-6.2 0-11.8-3.7-14.2-9.4-0.9-2.2-1.3-4.5-1.1-6.8V788.6c0-8.4 6.9-15.3 15.3-15.3h0.5c8.4 0 15.3 6.9 15.3 15.3v122.7c0 2-0.4 3.9-1.1 5.7v0.5l-0.4 0.4c-2.5 5.1-7.7 8.7-13.8 8.7zM511.2 926.5h-0.5c-8.4 0-15.3-6.9-15.3-15.3V788.5c0-8.4 6.9-15.3 15.3-15.3h0.5c8.4 0 15.3 6.9 15.3 15.3v122.7c0 8.4-6.9 15.3-15.3 15.3zM621.8 925.7h-0.5c-8.4 0-15.3-6.9-15.3-15.3V787.7c0-8.4 6.9-15.3 15.3-15.3h0.5c8.4 0 15.3 6.9 15.3 15.3v122.7c0 8.4-6.9 15.3-15.3 15.3zM730.9 927.5h-0.5c-6.2 0-11.8-3.7-14.2-9.4-0.9-2.2-1.3-4.5-1.1-6.8V789.5c0-8.4 6.9-15.3 15.3-15.3h0.5c8.4 0 15.3 6.9 15.3 15.3v122.7c0 2-0.4 3.9-1.1 5.7v0.5l-0.4 0.4c-2.5 5.2-7.7 8.7-13.8 8.7zM907.7 747.9H785c-8.4 0-15.3-6.9-15.3-15.3v-0.5c0-8.4 6.9-15.3 15.3-15.3h122.7c8.4 0 15.3 6.9 15.3 15.3v0.5c0 4.1-1.6 8-4.5 10.9-2.9 2.8-6.7 4.4-10.8 4.4z m-0.1-30h0zM904.5 640.8l-2.7-2.7H785.3c-8.4 0-15.3-6.9-15.3-15.3v-0.5c0-8.4 6.9-15.3 15.3-15.3h122.6c2 0 3.9 0.4 5.7 1.1h0.7l0.5 0.5c5 2.5 8.4 7.7 8.4 13.7v0.5c0 6.3-3.7 11.8-9.4 14.2l-9.3 3.8zM907.9 530.3H785.2c-8.4 0-15.3-6.9-15.3-15.3v-0.5c0-8.4 6.9-15.3 15.3-15.3h122.7c8.4 0 15.3 6.9 15.3 15.3v0.5c0 8.4-6.9 15.3-15.3 15.3zM907.1 419.7H784.4c-8.4 0-15.3-6.9-15.3-15.3v-0.5c0-8.4 6.9-15.3 15.3-15.3h122.7c8.4 0 15.3 6.9 15.3 15.3v0.5c0 8.4-6.9 15.3-15.3 15.3zM908.9 310.6H786.2c-8.4 0-15.3-6.9-15.3-15.3v-0.5c0-8.4 6.9-15.3 15.3-15.3h122.7c2 0 3.9 0.4 5.7 1.1h0.5l0.4 0.4c5.1 2.5 8.6 7.7 8.6 13.8v0.5c0 6.2-3.7 11.8-9.5 14.2-1.7 0.8-3.7 1.1-5.7 1.1zM237.4 746.9H114.7c-8.4 0-15.3-6.9-15.3-15.3v-0.5c0-8.4 6.9-15.3 15.3-15.3h122.7c8.4 0 15.3 6.9 15.3 15.3v0.5c0 4.1-1.6 7.9-4.6 10.8-2.9 2.9-6.7 4.5-10.7 4.5zM237.7 637.1H115c-8.4 0-15.3-6.9-15.3-15.3v-0.5c0-8.4 6.9-15.3 15.3-15.3h122.6c8.4 0 15.3 6.9 15.3 15.3v0.5c0 8.4-6.8 15.3-15.2 15.3zM237.7 529.2H114.9c-8.4 0-15.3-6.9-15.3-15.3v-0.5c0-8.4 6.9-15.3 15.3-15.3h122.7c2 0 3.9 0.4 5.7 1.1h0.5l0.4 0.4c5.2 2.5 8.7 7.7 8.7 13.8v0.5c0 6.2-3.7 11.8-9.4 14.2-1.9 0.8-3.9 1.1-5.8 1.1zM236.9 418.6H114.1c-8.4 0-15.3-6.9-15.3-15.3v-0.5c0-8.4 6.9-15.3 15.3-15.3h122.7c2 0 3.9 0.4 5.7 1.1h0.5l0.4 0.4c5.1 2.5 8.7 7.7 8.7 13.8v0.5c0 6.2-3.7 11.8-9.4 14.2-1.9 0.8-3.9 1.1-5.8 1.1zM238.6 309.6H115.9c-8.4 0-15.3-6.9-15.3-15.3v-0.5c0-8.4 6.9-15.3 15.3-15.3h122.7c8.4 0 15.3 6.9 15.3 15.3v0.5c0 4.1-1.6 7.9-4.5 10.8-2.9 2.9-6.8 4.5-10.8 4.5z m-0.1-30h0z" p-id="1590"></path></svg>