<?xml version="1.0" standalone="no"?><!DOCTYPE svg PUBLIC "-//W3C//DTD SVG 1.1//EN" "http://www.w3.org/Graphics/SVG/1.1/DTD/svg11.dtd"><svg t="1667198641068" class="icon" viewBox="0 0 1024 1024" version="1.1" xmlns="http://www.w3.org/2000/svg" p-id="6089" xmlns:xlink="http://www.w3.org/1999/xlink" width="200" height="200"><path d="M399.353432 920.54907c13.465042 0 24.466966-11.001924 24.466966-24.466966v-247.953817c0-38.588839-31.199487-69.788326-69.788326-69.788325H107.884541c-13.465042 0-24.466966 11.001924-24.466966 24.466966s11.001924 24.466966 24.466966 24.466966h221.516357c24.959589 0 45.32136 20.36177 45.32136 45.321359v223.322643c0.164208 13.62925 11.001924 24.631174 24.631174 24.631174zM401.159718 103.943554c13.465042 0 24.466966 11.001924 24.466966 24.466966v247.953816c0 38.588839-31.199487 69.788326-69.788326 69.788326H109.855035c-13.465042 0-24.466966-11.001924-24.466966-24.466966s11.001924-24.466966 24.466966-24.466966h221.516357c24.959589 0 45.32136-20.36177 45.32136-45.32136V128.41052a24.631174 24.631174 0 0 1 24.466966-24.466966zM630.065427 105.093008c-13.465042 0-24.466966 11.001924-24.466966 24.466966v247.953817c0 38.588839 31.199487 69.788326 69.788325 69.788326h245.983323c13.465042 0 24.466966-11.001924 24.466966-24.466966s-11.001924-24.466966-24.466966-24.466966H699.853752c-24.959589 0-45.32136-20.36177-45.321359-45.32136V129.559974c0-13.465042-11.001924-24.466966-24.466966-24.466966zM628.094933 919.399615c-13.465042 0-24.466966-11.001924-24.466966-24.466966V646.978833c0-38.588839 31.199487-69.788326 69.788325-69.788326h245.983323c13.465042 0 24.466966 11.001924 24.466966 24.466966s-11.001924 24.466966-24.466966 24.466966H697.883258c-24.959589 0-45.32136 20.36177-45.321359 45.32136v223.322642c0 13.62925-11.001924 24.631174-24.466966 24.631174z" p-id="6090"></path></svg>