<?xml version="1.0" standalone="no"?><!DOCTYPE svg PUBLIC "-//W3C//DTD SVG 1.1//EN" "http://www.w3.org/Graphics/SVG/1.1/DTD/svg11.dtd"><svg t="1667198630580" class="icon" viewBox="0 0 1024 1024" version="1.1" xmlns="http://www.w3.org/2000/svg" p-id="5940" xmlns:xlink="http://www.w3.org/1999/xlink" width="200" height="200"><path d="M109.855035 446.152662c-13.465042 0-24.466966-11.001924-24.466966-24.466966v-247.953817c0-38.588839 31.199487-69.788326 69.788326-69.788325h245.983323c13.465042 0 24.466966 11.001924 24.466966 24.466966s-11.001924 24.466966-24.466966 24.466966H179.643361c-24.959589 0-45.32136 20.36177-45.32136 45.321359v223.322643c0 13.62925-11.001924 24.631174-24.466966 24.631174zM921.370109 447.302117c13.465042 0 24.466966-11.001924 24.466966-24.466966v-247.953817c0-38.588839-31.199487-69.788326-69.788326-69.788326H630.065427c-13.465042 0-24.466966 11.001924-24.466966 24.466966s11.001924 24.466966 24.466966 24.466966h221.516356c24.959589 0 45.32136 20.36177 45.32136 45.32136v223.322643c0 13.62925 11.001924 24.631174 24.466966 24.631174zM107.884541 578.339962c-13.465042 0-24.466966 11.001924-24.466966 24.466966v247.953816c0 38.588839 31.199487 69.788326 69.788326 69.788326h245.983323c13.465042 0 24.466966-11.001924 24.466966-24.466966s-11.001924-24.466966-24.466966-24.466966H177.672867c-24.959589 0-45.32136-20.36177-45.32136-45.32136v-223.322643c0-13.62925-11.001924-24.631174-24.466966-24.631173zM919.399615 577.190507c13.465042 0 24.466966 11.001924 24.466966 24.466966v247.953816c0 38.588839-31.199487 69.788326-69.788326 69.788326H628.094933c-13.465042 0-24.466966-11.001924-24.466966-24.466966s11.001924-24.466966 24.466966-24.466966h221.516356c24.959589 0 45.32136-20.36177 45.32136-45.32136v-223.322642c0-13.62925 11.001924-24.631174 24.466966-24.631174z" p-id="5941"></path></svg>