<svg t="1719822724973" class="icon" viewBox="0 0 1024 1024" version="1.1" xmlns="http://www.w3.org/2000/svg" p-id="27813" width="200" height="200"><path d="M512 19.2C240.9728 19.2 19.2 240.9728 19.2 512 19.2 783.0528 240.9728 1004.8 512 1004.8c271.0528 0 492.8-221.7472 492.8-492.8C1004.8 240.9728 783.0528 19.2 512 19.2z m-234.624 369.6128a64.5888 64.5888 0 0 1 129.1264 0 64.5888 64.5888 0 0 1-129.1264 0z m90.9568 217.1392a257.28 257.28 0 0 0 143.3344 43.4432 257.28 257.28 0 0 0 143.3344-43.4432l39.3728 58.3936a327.424 327.424 0 0 1-182.5024 55.3216 327.424 327.424 0 0 1-182.4768-55.296l38.9376-58.4192z m313.856-152.576a64.5888 64.5888 0 0 1 0-129.152 64.5888 64.5888 0 0 1 0 129.152z" fill="#7ACE42" p-id="27814"></path></svg>