<svg t="1719823261852" class="icon" viewBox="0 0 1024 1024" version="1.1" xmlns="http://www.w3.org/2000/svg" p-id="17845" width="256" height="256"><path d="M331.32544 144.7936l2.33472 3.4816 409.6 696.32a30.72 30.72 0 0 1-50.5856 34.6112l-2.33472-3.4816-409.6-696.32a30.72 30.72 0 0 1 50.5856-34.6112zM880.64 296.96a71.68 71.68 0 0 1 71.43424 65.78176L952.32 368.64v286.72a71.68 71.68 0 0 1-65.78176 71.43424L880.64 727.04h-81.92a30.72 30.72 0 0 1-4.17792-61.15328L798.72 665.6h81.92a10.24 10.24 0 0 0 9.95328-7.90528L890.88 655.36V368.64a10.24 10.24 0 0 0-7.90528-9.95328L880.64 358.4h-307.2a30.72 30.72 0 0 1-4.17792-61.15328l4.17792-0.28672H880.64z m-634.88 0a30.72 30.72 0 0 1 4.17792 61.15328L245.76 358.4H143.36a10.24 10.24 0 0 0-9.95328 7.90528L133.12 368.64v286.72a10.24 10.24 0 0 0 7.90528 9.95328L143.36 665.6h307.2a30.72 30.72 0 0 1 4.17792 61.15328l-4.17792 0.28672H143.36a71.68 71.68 0 0 1-71.43424-65.78176L71.68 655.36V368.64a71.68 71.68 0 0 1 65.78176-71.43424L143.36 296.96h102.4z m512 184.32a30.72 30.72 0 0 1 4.17792 61.15328L757.76 542.72h-81.92a30.72 30.72 0 0 1-4.17792-61.15328L675.84 481.28h81.92z m-409.6 0a30.72 30.72 0 0 1 4.17792 61.15328L348.16 542.72H266.24a30.72 30.72 0 0 1-4.17792-61.15328L266.24 481.28h81.92z" fill="#ea9518" p-id="17846"></path></svg>