<svg t="1719889753224" class="icon" viewBox="0 0 1024 1024" version="1.1" xmlns="http://www.w3.org/2000/svg" p-id="10244" width="200" height="200"><path d="M581.213 659.24c-55.185 0-110.37-21.005-152.39-63.025-11.413-11.411-11.413-29.965 0-41.373 11.412-11.413 29.96-11.413 41.374 0 61.214 61.215 160.76 61.215 221.971 0l212.788-212.789c61.214-61.214 61.214-160.757 0-221.971-61.215-61.215-160.762-61.215-221.972 0L503.436 299.626c-11.413 11.411-29.961 11.411-41.374 0-11.413-11.413-11.413-29.961 0-41.374L641.605 78.707c84.04-84.04 220.747-84.04 304.725 0 83.981 84.035 84.039 220.741 0 304.724L733.546 596.215c-42.02 42.02-97.205 63.026-152.39 63.026h0.057z m-351.13 351.134c-55.19 0-110.375-21.01-152.39-63.03-84.039-84.034-84.039-220.74 0-304.723l212.784-212.784c84.038-84.039 220.746-84.039 304.724 0 11.412 11.413 11.412 29.961 0 41.374-11.413 11.413-29.967 11.413-41.375 0-61.214-61.214-160.762-61.214-221.976 0L119.067 683.999c-61.214 61.21-61.214 160.757 0 221.971 61.21 61.211 160.757 61.211 221.972 0l179.543-179.543c11.413-11.413 29.967-11.413 41.374 0 11.413 11.408 11.413 29.961 0 41.374L382.413 947.344c-42.015 42.02-97.205 63.03-152.39 63.03h0.06z m0 9.73h-0.06c-60.205-0.017-116.748-23.413-159.21-65.88-42.484-42.48-65.88-99.04-65.88-159.261 0-60.224 23.397-116.77 65.882-159.226l212.781-212.78c42.482-42.483 99.044-65.88 159.265-65.88 60.222 0 116.767 23.397 159.223 65.882 15.197 15.199 15.197 39.932-0.003 55.133-7.359 7.357-17.149 11.409-27.57 11.409-10.42 0-20.211-4.053-27.568-11.41-27.766-27.768-64.739-43.06-104.105-43.06-39.367 0-76.34 15.292-104.108 43.06L125.948 690.88c-27.769 27.765-43.061 64.737-43.061 104.103s15.292 76.34 43.06 104.108c27.767 27.766 64.738 43.057 104.105 43.057 39.366 0 76.34-15.291 104.106-43.057L513.7 719.545c7.36-7.357 17.15-11.409 27.57-11.409 10.422 0 20.213 4.053 27.568 11.412 7.355 7.352 11.408 17.142 11.408 27.564 0 10.42-4.052 20.211-11.409 27.569L389.292 954.225c-42.461 42.466-99.005 65.862-159.209 65.88z m212.778-643.566c-55.023 0-106.697 21.372-145.505 60.178L84.574 649.502c-38.81 38.78-60.18 90.44-60.18 145.46s21.372 106.697 60.18 145.5c38.795 38.8 90.462 60.173 145.48 60.181 55.016-0.008 106.683-21.379 145.477-60.18L555.074 760.92c3.682-3.68 5.71-8.586 5.71-13.807 0-5.223-2.028-10.125-5.707-13.804-3.682-3.683-8.585-5.71-13.808-5.71s-10.127 2.027-13.81 5.709L347.92 912.85c-31.445 31.442-73.304 48.757-117.868 48.757-44.566 0-86.424-17.315-117.865-48.757-31.444-31.445-48.76-73.305-48.76-117.869s17.316-86.424 48.76-117.864L324.97 464.33c31.444-31.444 73.303-48.76 117.87-48.76 44.564 0 86.423 17.316 117.868 48.76 3.68 3.682 8.584 5.71 13.805 5.71 5.223 0 10.127-2.028 13.81-5.71 7.613-7.613 7.612-20 0-27.614-38.782-38.807-90.439-60.178-145.46-60.178zM581.213 668.97h-0.057c-60.209-0.015-116.748-23.408-159.214-65.874-7.358-7.358-11.41-17.15-11.41-27.57 0-10.42 4.052-20.212 11.411-27.567 7.355-7.355 17.146-11.408 27.565-11.408 10.42 0 20.21 4.052 27.568 11.41 27.768 27.768 64.74 43.06 104.107 43.06s76.338-15.292 104.104-43.06l212.787-212.788c57.404-57.404 57.404-150.807 0-208.212C870.307 99.193 833.334 83.9 793.968 83.9s-76.339 15.293-104.104 43.061L510.315 306.505c-7.357 7.358-17.147 11.41-27.567 11.41s-20.21-4.052-27.568-11.408c-15.201-15.202-15.201-39.935 0-55.136L634.723 71.828c42.485-42.484 99.047-65.88 159.266-65.88 60.224 0 116.77 23.397 159.223 65.882 42.459 42.487 65.847 99.046 65.855 159.26 0.008 60.229-23.382 116.776-65.859 159.225l-212.781 212.78c-42.469 42.467-99.007 65.861-159.214 65.875zM449.51 556.012c-5.222 0-10.125 2.028-13.807 5.71-3.682 3.68-5.71 8.582-5.71 13.805 0 5.221 2.028 10.125 5.71 13.807 38.797 38.797 90.463 60.168 145.483 60.176 55.015-0.008 106.683-21.378 145.48-60.176l212.782-212.782c38.8-38.775 60.165-90.434 60.158-145.461-0.008-55.018-21.372-106.693-60.16-145.504C900.67 46.78 849.013 25.409 793.99 25.409c-55.022 0-106.697 21.372-145.504 60.18L468.94 265.13c-7.613 7.613-7.613 20 0 27.614 3.68 3.68 8.585 5.709 13.807 5.709s10.124-2.028 13.807-5.71l179.548-179.543c31.443-31.444 73.301-48.76 117.866-48.76 44.564 0 86.424 17.316 117.868 48.76 64.992 64.992 64.992 170.74 0 235.733L699.049 561.723c-31.443 31.444-73.302 48.76-117.865 48.76s-86.424-17.316-117.868-48.76c-3.682-3.683-8.585-5.71-13.806-5.71z" fill="" p-id="10245"></path></svg>