<?xml version="1.0" standalone="no"?><!DOCTYPE svg PUBLIC "-//W3C//DTD SVG 1.1//EN" "http://www.w3.org/Graphics/SVG/1.1/DTD/svg11.dtd"><svg t="1667526068821" class="icon" viewBox="0 0 1024 1024" version="1.1" xmlns="http://www.w3.org/2000/svg" p-id="3411" xmlns:xlink="http://www.w3.org/1999/xlink" width="200" height="200"><path d="M515 799.2c-77.3 0-150-30.1-204.6-84.8-54.7-54.7-84.8-127.3-84.8-204.6 0-58.9 17.6-115.5 50.8-163.8 32.4-47.2 77.5-83.4 130.4-104.6 10.2-4.1 21.9 0.8 26 11.1 4.1 10.2-0.8 21.9-11.1 26-94.9 38.2-156.2 129-156.2 231.3 0 137.5 111.9 249.4 249.4 249.4s249.4-111.9 249.4-249.4c0-103.2-62.1-194.3-158.1-232.1-10.3-4-15.3-15.6-11.3-25.9 4-10.3 15.6-15.3 25.9-11.3 53.5 21 99.1 57.2 132 104.6 33.7 48.5 51.5 105.5 51.5 164.7 0 77.3-30.1 150-84.8 204.6S592.3 799.2 515 799.2z" p-id="3412"></path><path d="M510.8 507.8c-10.7 0-19.4-8.7-19.4-19.4V237.3c0-10.7 8.7-19.4 19.4-19.4s19.4 8.7 19.4 19.4v251.2c0 10.6-8.8 19.3-19.4 19.3z" p-id="3413"></path><path d="M510.7 882.2c-50.1 0-98.8-9.8-144.6-29.2-44.2-18.7-84-45.5-118.1-79.6-34.1-34.1-60.9-73.8-79.6-118.1-19.4-45.8-29.2-94.5-29.2-144.6 0-50.1 9.8-98.8 29.2-144.6 18.7-44.2 45.5-84 79.6-118.1 34.1-34.1 73.8-60.9 118.1-79.6 45.8-19.4 94.5-29.2 144.6-29.2s98.8 9.8 144.6 29.2c44.2 18.7 84 45.5 118.1 79.6s60.9 73.8 79.6 118.1c19.4 45.8 29.2 94.5 29.2 144.6 0 50.1-9.8 98.8-29.2 144.6-18.7 44.2-45.5 84-79.6 118.1-34.1 34.1-73.8 60.9-118.1 79.6-45.8 19.4-94.5 29.2-144.6 29.2z m0-703c-182.8 0-331.5 148.7-331.5 331.5s148.7 331.5 331.5 331.5 331.5-148.7 331.5-331.5-148.7-331.5-331.5-331.5z" p-id="3414"></path></svg>