<svg t="1719823515259" class="icon" viewBox="0 0 1024 1024" version="1.1" xmlns="http://www.w3.org/2000/svg" p-id="25792" width="200" height="200"><path d="M777.244444 203.377778c0 12.942222 4.920889 25.884444 14.791112 35.754666a395.349333 395.349333 0 0 1 115.996444 280.035556c0 218.709333-177.322667 396.032-396.032 396.032-218.737778 0-396.032-177.379556-396.032-396.032 0-105.386667 41.528889-205.539556 115.939556-280.035556 9.927111-9.870222 14.791111-22.812444 14.791111-35.783111 0-12.942222-4.864-25.827556-14.791111-35.754666a50.289778 50.289778 0 0 0-35.697778-14.791111 50.346667 50.346667 0 0 0-35.783111 14.791111 495.672889 495.672889 0 0 0-145.692445 351.573333c0 274.574222 222.634667 497.208889 497.265778 497.208889 274.574222 0 497.265778-222.634667 497.265778-497.208889 0-132.323556-52.110222-257.934222-145.692445-351.573333a50.346667 50.346667 0 0 0-35.783111-14.791111c-12.942222 0-25.884444 4.920889-35.754666 14.791111-9.870222 9.870222-14.791111 22.812444-14.791112 35.754666z" fill="#00B147" p-id="25793"></path><path d="M476.16 22.442667c-9.102222 9.159111-14.791111 21.845333-14.791111 35.811555v460.913778c0 13.937778 5.745778 26.624 14.876444 35.754667v0.056889c9.073778 9.102222 21.76 14.734222 35.754667 14.734222a50.346667 50.346667 0 0 0 35.754667-14.734222v-0.056889c9.500444-9.472 14.819556-22.357333 14.791111-35.754667V58.254222A50.318222 50.318222 0 0 0 512 7.736889c-13.966222 0-26.652444 5.575111-35.783111 14.705778z" fill="#00B147" p-id="25794"></path></svg>