<svg t="1719822264335" class="icon" viewBox="0 0 1024 1024" version="1.1" xmlns="http://www.w3.org/2000/svg" p-id="10979" width="200" height="200"><path d="M512 19.2C240.9728 19.2 19.2 240.9728 19.2 512 19.2 783.0528 240.9728 1004.8 512 1004.8c271.0528 0 492.8-221.7472 492.8-492.8C1004.8 240.9728 783.0528 19.2 512 19.2z m-234.624 369.6128a64.5888 64.5888 0 0 1 129.1264 0 64.5888 64.5888 0 0 1-129.1264 0z m378.0608 330.88c-14.08-9.3696-28.928-17.408-44.544-23.8848a257.28 257.28 0 0 0-98.7904-19.584 257.28 257.28 0 0 0-143.3344 43.4688l-39.3728-58.4192a327.424 327.424 0 0 1 182.5024-55.3216 327.424 327.424 0 0 1 182.4768 55.296l-38.912 58.4448z m26.7264-266.3168a64.5888 64.5888 0 0 1 0-129.152 64.5888 64.5888 0 0 1 0 129.152z" fill="#EE5C43" p-id="10980"></path></svg>