<?xml version="1.0" standalone="no"?><!DOCTYPE svg PUBLIC "-//W3C//DTD SVG 1.1//EN" "http://www.w3.org/Graphics/SVG/1.1/DTD/svg11.dtd"><svg t="1642080181679" class="icon" viewBox="0 0 1024 1024" version="1.1" xmlns="http://www.w3.org/2000/svg" p-id="2954" xmlns:xlink="http://www.w3.org/1999/xlink" width="200" height="200"><defs><style type="text/css"></style></defs><path d="M576.3 157.6c-174.3 0-318.9 128-345.7 294.8L175.2 397c-17.6-17.7-46.3-17.7-64 0-17.7 17.7-17.7 46.3 0 64l134.3 134.3c8.8 8.8 20.4 13.3 32 13.3 1.1 0 2.2-0.2 3.3-0.3 1.1 0.1 2.2 0.3 3.3 0.3 11.6 0 23.2-4.4 32-13.3L450.4 461c17.7-17.7 17.7-46.3 0-64-17.7-17.7-46.3-17.7-64 0l-66 66c21.5-121.9 127.9-214.9 255.9-214.9 143.4 0 260.1 116.7 260.1 260.1 0 143.4-116.7 260.1-260.1 260.1-64.9 0-127-24-175-67.6-18.5-16.8-47.1-15.5-63.9 3-16.8 18.5-15.5 47.1 3 63.9 64.7 58.8 148.4 91.2 235.9 91.2 193.3 0 350.6-157.3 350.6-350.6S769.7 157.6 576.3 157.6z" p-id="2955"></path></svg>